<?xml version="1.0" standalone="no"?>
<!DOCTYPE svg PUBLIC "-//W3C//DTD SVG 20010904//EN"
 "http://www.w3.org/TR/2001/REC-SVG-20010904/DTD/svg10.dtd">
<svg version="1.0" xmlns="http://www.w3.org/2000/svg"
 width="223.000000pt" height="243.000000pt" viewBox="0 0 223.000000 243.000000"
 preserveAspectRatio="xMidYMid meet">

<g transform="translate(0.000000,243.000000) scale(0.100000,-0.100000)"
fill="#000000" stroke="none">
<path d="M578 2130 c-295 -148 -539 -274 -543 -279 -3 -6 -3 -300 1 -654 l7
-644 529 -254 c290 -140 536 -255 546 -257 9 -1 253 112 542 251 l525 254 3
651 2 651 -242 124 c-134 68 -376 192 -538 275 l-295 150 -537 -268z m423
-519 c24 -11 53 -27 65 -36 19 -14 23 -13 55 10 107 80 267 66 364 -30 87 -87
105 -214 50 -347 -7 -16 1 -18 89 -18 88 0 96 -2 96 -19 0 -26 -18 -31 -125
-31 l-94 0 -93 -93 c-88 -89 -216 -193 -291 -237 l-34 -20 -59 40 c-108 73
-222 170 -291 245 l-68 75 -83 0 c-81 0 -83 1 -80 23 3 20 9 22 69 25 l66 3
-20 67 c-18 58 -19 74 -9 130 25 147 151 249 293 238 31 -2 76 -13 100 -25z"/>
<path d="M815 1577 c-61 -16 -139 -99 -155 -165 -14 -59 -8 -119 18 -172 l17
-35 132 -3 132 -3 28 -37 c15 -20 30 -41 34 -46 4 -4 47 51 95 123 95 144 114
157 135 94 6 -21 20 -62 31 -90 l19 -53 85 0 85 0 20 45 c49 111 31 214 -51
288 -97 87 -218 88 -314 2 -21 -19 -39 -35 -40 -35 -1 0 -20 16 -42 35 -65 58
-141 76 -229 52z m132 -68 c15 -6 38 -20 51 -31 47 -45 11 -76 -39 -34 -47 40
-110 37 -155 -8 -19 -19 -34 -43 -34 -54 0 -34 -11 -52 -31 -52 -14 0 -19 7
-19 29 0 113 118 192 227 150z"/>
<path d="M1121 1155 c-45 -69 -86 -125 -91 -125 -13 0 -34 23 -66 74 l-29 46
-98 0 c-90 0 -97 -1 -88 -18 20 -38 218 -207 304 -261 l37 -22 96 71 c52 39
130 104 172 145 l77 74 -72 1 c-39 0 -78 3 -86 6 -9 3 -26 34 -38 70 -12 35
-26 64 -30 64 -4 0 -44 -56 -88 -125z"/>
</g>
</svg>
