<svg id="Группа_7" data-name="Группа 7" xmlns="http://www.w3.org/2000/svg" xmlns:xlink="http://www.w3.org/1999/xlink" width="224" height="244" viewBox="0 0 224 244">
  <defs>
    <style>
      .cls-1 {
        fill: #383838;
        stroke: #fff;
        stroke-linejoin: round;
        stroke-width: 3px;
        mix-blend-mode: lighten;
        filter: url(#filter);
      }

      .cls-1, .cls-2 {
        fill-rule: evenodd;
      }

      .cls-2 {
        fill: #fff;
      }
    </style>
    <filter id="filter" x="1142" y="1694" width="227" height="247" filterUnits="userSpaceOnUse">
      <feOffset result="offset" in="SourceAlpha"/>
      <feGaussianBlur result="blur" stdDeviation="1"/>
      <feFlood result="flood" flood-opacity="0.4"/>
      <feComposite result="composite" operator="in" in2="blur"/>
      <feBlend result="blend" in="SourceGraphic"/>
    </filter>
  </defs>
  <g transform="translate(-1143.5 -1695.5)" style="fill: #383838; filter: url(#filter)">
    <path id="Shape_11_copy_6" data-name="Shape 11 copy 6" class="cls-1" d="M1255.63,1699.03l107.86,55v130.04l-107.21,51.76-108.85-52.4-0.26-130.05Z" style="stroke: inherit; filter: none; fill: inherit"/>
  </g>
  <use transform="translate(-1143.5 -1695.5)" xlink:href="#Shape_11_copy_6" style="stroke: #fff; filter: none; fill: none"/>
  <path id="Forma_1" data-name="Forma 1" class="cls-2" d="M1295.96,1835.86l-0.01-.04a18.814,18.814,0,0,0-.91-10.05l-0.04-.07c0.05-.56.08-1.13,0.08-1.71a18.931,18.931,0,0,0-2.52-9.43,16.026,16.026,0,0,0-4.62-10.2,5.209,5.209,0,0,0,.67-2.48c0-1.45-.65-3.5-3.44-5.44a4.635,4.635,0,0,0,1.1-2.93c0-2.86-2.79-5.27-7.74-6.79a5.19,5.19,0,0,0,.74-2.52c0-3.12-2.86-5.85-7.52-7.32-0.59-3.34-4.98-5.88-10.54-5.88a1.5,1.5,0,0,0,0,3c4.37,0,7.62,1.88,7.68,3.58l-0.02.05-0.01.19c-0.23,1.66-3.41,3.43-7.65,3.43a15.072,15.072,0,0,1-2.16-.2,4.126,4.126,0,0,0-7.8,0,15.072,15.072,0,0,1-2.16.2c-4.4,0-7.69-1.91-7.69-3.62s3.29-3.62,7.69-3.62a1.5,1.5,0,0,0,0-3c-5.55,0-9.94,2.53-10.53,5.87-4.71,1.48-7.52,4.17-7.52,7.33a5.319,5.319,0,0,0,.73,2.52c-4.94,1.52-7.73,3.94-7.73,6.79a4.587,4.587,0,0,0,1.1,2.92c-2.76,1.93-3.44,3.96-3.44,5.44a5.184,5.184,0,0,0,.68,2.5,16.643,16.643,0,0,0-3.93,6.35,14.571,14.571,0,0,0-.69,3.86l-0.14.17a18.837,18.837,0,0,0-2.39,9.23c0,0.58.03,1.14,0.08,1.7a18.579,18.579,0,0,0-1.07,8.95l-0.08.18a20.368,20.368,0,0,0,.79,10.57l-0.06.31a23.661,23.661,0,0,0,.88,6.77c1.42,5.05,4.39,8.92,8.15,10.61a10.179,10.179,0,0,0,4.15.9,10.318,10.318,0,0,0,4.6-1.11c4.68-2.36,6.77-8.26,8.03-12.18a36.549,36.549,0,0,0,3.41-7.24c0.29-.79.55-1.48,0.79-2.01l0.13-.59c0.82-1.55,1.46-3.06,1.98-4.3,0.32-.77.6-1.46,0.87-2l0.12-.45c0.58-.6,1.1-1.13,1.55-1.52l0.36-.47c0.35-.12.71-0.24,1.06-0.37v0.22a4.17,4.17,0,1,0,8.34,0v-0.22c0.34,0.13.7,0.25,1.06,0.37l0.35,0.47c0.45,0.39.97,0.92,1.55,1.52l0.13,0.45c0.27,0.54.55,1.23,0.88,2.01a45.844,45.844,0,0,0,1.97,4.29l0.13,0.59c0.23,0.54.49,1.22,0.79,2.01a36.606,36.606,0,0,0,3.41,7.25c1.26,3.92,3.35,9.81,8.02,12.17a10.391,10.391,0,0,0,4.61,1.11,10,10,0,0,0,4.15-.91c3.76-1.68,6.73-5.55,8.16-10.6a26.451,26.451,0,0,0,1.24-8.63l-0.02-.05A20.178,20.178,0,0,0,1295.96,1835.86Zm-23.67,13.5-0.09-.29-0.21-.67a14.032,14.032,0,0,0,1.9.95,15.7,15.7,0,0,0,12.24-.38,16.838,16.838,0,0,0,6.76-5.83,16.657,16.657,0,0,1-.48,1.81,13.881,13.881,0,0,1-7.08,8.44,10.158,10.158,0,0,1-8.36.11A11.107,11.107,0,0,1,1272.29,1849.36Zm-46.36-41.18,0.23-.21c3.74,2.18,9.54,3.53,16.28,3.53a43.408,43.408,0,0,0,8.55-.85v7.28a42.6,42.6,0,0,1-9.28.99c-10.8,0-18.88-3.71-18.88-7.04C1222.83,1810.66,1223.93,1809.34,1225.93,1808.18Zm33.4,2.48a44.192,44.192,0,0,0,8.55.84c6.69,0,12.45-1.33,16.19-3.48,2.16,1.19,3.42,2.59,3.42,3.86,0,3.33-8.08,7.05-18.88,7.05a42.6,42.6,0,0,1-9.28-.99v-7.28Zm32.79,13.33a14.947,14.947,0,0,1-14.5,15.26c-5.03.2-8.97-3.08-11.81-5.87a29.6,29.6,0,0,0,3.66.24c10.52,0,19.41-5.57,22.21-13.17A16.105,16.105,0,0,1,1292.12,1823.99Zm0.2,13.97a14.359,14.359,0,0,1-7.42,8.27,12.652,12.652,0,0,1-9.95.31c-3.7-1.43-5.91-4.7-7.42-7.79a16.673,16.673,0,0,0,9.84,3.51h0.32a17.637,17.637,0,0,0,15.59-10.19A16.146,16.146,0,0,1,1292.32,1837.96Zm-7.33-34.47-0.07.05-0.07.14c-2.21,2.52-8.75,4.82-16.97,4.82a39.959,39.959,0,0,1-8.55-.91v-6.38a45.313,45.313,0,0,0,7.62.66c5.93,0,12.1-1.19,15.82-3.43,1.85,1.09,2.87,2.3,2.87,3.43A2.587,2.587,0,0,1,1284.99,1803.49Zm-1.67-9.98c0,2.18-6.38,5.35-16.38,5.35a41.7,41.7,0,0,1-7.61-.7v-5.95a27.2,27.2,0,0,0,4.83.43c5.05,0,9.42-1.34,12.15-3.41C1280.9,1790.38,1283.32,1792.22,1283.32,1793.51Zm-12.08-13.67c3.08,1.05,5.07,2.72,5.07,4.36a3.037,3.037,0,0,1-1.04,2.06l-0.57.49c-2.01,1.61-5.78,2.88-10.54,2.88a24.257,24.257,0,0,1-4.83-.49v-5.06a16.386,16.386,0,0,0,1.89.17C1265.93,1784.25,1269.8,1782.43,1271.24,1779.84Zm-32.15.01c1.45,2.58,5.31,4.4,10.02,4.4a16.414,16.414,0,0,0,1.88-.17v5.06a24.156,24.156,0,0,1-4.82.49c-7.17,0-12.16-2.87-12.16-5.43C1234.01,1782.57,1236.02,1780.89,1239.09,1779.85Zm-5.08,9.38c2.73,2.06,7.1,3.41,12.16,3.41a27.09,27.09,0,0,0,4.82-.43v5.95a40.734,40.734,0,0,1-7.61.71c-6.98,0-12.14-1.55-14.65-3.23l-0.6-.4a2.49,2.49,0,0,1-1.12-1.73C1227.01,1792.26,1229.23,1790.43,1234.01,1789.23Zm-6.44,9.23c3.73,2.24,9.88,3.41,15.81,3.41a44.087,44.087,0,0,0,7.61-.66v6.39a40.527,40.527,0,0,1-8.54.9c-10.17,0-17.78-3.5-17.78-6.62C1224.67,1800.75,1225.74,1799.54,1227.57,1798.46Zm5.79,55.04a10.22,10.22,0,0,1-8.37-.1,13.961,13.961,0,0,1-7.08-8.45c-0.2-.64-0.35-1.24-0.51-1.85a16.839,16.839,0,0,0,6.8,5.87,15.763,15.763,0,0,0,6.57,1.44,15.591,15.591,0,0,0,5.65-1.06,13.722,13.722,0,0,0,1.92-.95l-0.21.67-0.1.28A11.038,11.038,0,0,1,1233.36,1853.5Zm-0.41-14.25h-0.25a14.954,14.954,0,0,1-14.5-15.26,15.953,15.953,0,0,1,.43-3.59c2.78,7.63,11.68,13.23,22.23,13.23a29.439,29.439,0,0,0,3.65-.24C1241.73,1836.1,1237.9,1839.25,1232.95,1839.25Zm-0.32,3.01h0.32a16.71,16.71,0,0,0,9.85-3.52c-1.52,3.1-3.73,6.37-7.43,7.8a12.738,12.738,0,0,1-9.95-.31,14.422,14.422,0,0,1-7.42-8.27,16.251,16.251,0,0,1-.96-5.91A17.621,17.621,0,0,0,1232.63,1842.26Zm-1.25,17.9a7.059,7.059,0,0,1-6.24.16c-2.75-1.24-4.98-4.07-6.23-7.83a15.467,15.467,0,0,0,4.87,3.65,13.153,13.153,0,0,0,10.73.13,10.326,10.326,0,0,0,.97-0.54A10.215,10.215,0,0,1,1231.38,1860.16Zm9.47-29.55c-11.12,0-20.18-6.84-20.18-15.26l0.05-.62c2.55,4.25,10.73,7.2,21,7.2a46.6,46.6,0,0,0,9.27-.94v7.55A25.283,25.283,0,0,1,1240.85,1830.61Zm18.48-9.62a45.965,45.965,0,0,0,9.28.94c9.96,0,17.95-2.77,20.75-6.81l0.28,0.41c-0.13,8.34-9.12,15.09-20.18,15.09a25.442,25.442,0,0,1-10.13-2.07v-7.56h0Zm25.86,39.33a7.081,7.081,0,0,1-6.25-.16,10.224,10.224,0,0,1-4.09-4.42c0.33,0.18.62,0.38,0.97,0.53a13.146,13.146,0,0,0,5.2,1.09,13.3,13.3,0,0,0,5.52-1.22,15.246,15.246,0,0,0,4.88-3.65C1290.17,1856.25,1287.94,1859.08,1285.19,1860.32Z" transform="translate(-1143.5 -1695.5)"/>
</svg>
