<svg xmlns="http://www.w3.org/2000/svg" width="23.03" height="23.03" viewBox="0 0 23.03 23.03">
  <defs>
    <style>
      .cls-1 {
        fill: #b1b1b1;
        fill-rule: evenodd;
      }
    </style>
  </defs>
  <path id="Forma_1" data-name="Forma 1" class="cls-1" d="M1366.07,3699.18a11.408,11.408,0,0,0,.13-1.67,10.68,10.68,0,0,0-10.69-10.68,11.38,11.38,0,0,0-1.66.13,6.461,6.461,0,0,0-8.89,8.89,11.38,11.38,0,0,0-.13,1.66,10.68,10.68,0,0,0,10.68,10.69,11.408,11.408,0,0,0,1.67-.13A6.461,6.461,0,0,0,1366.07,3699.18Zm-5.48,3.19a4.53,4.53,0,0,1-1.99,1.53,8,8,0,0,1-3.08.55,7.414,7.414,0,0,1-3.53-.75,4.68,4.68,0,0,1-1.61-1.45,3.143,3.143,0,0,1-.62-1.77,1.167,1.167,0,0,1,.38-0.87,1.4,1.4,0,0,1,.97-0.37,1.2,1.2,0,0,1,.81.29,2.121,2.121,0,0,1,.56.83,5.1,5.1,0,0,0,.59,1.05,2.36,2.36,0,0,0,.87.69,3.531,3.531,0,0,0,1.5.27,3.572,3.572,0,0,0,2.07-.55,1.6,1.6,0,0,0,.79-1.36,1.371,1.371,0,0,0-.42-1.04,2.825,2.825,0,0,0-1.11-.62c-0.46-.14-1.07-0.29-1.84-0.46a14.21,14.21,0,0,1-2.6-.79,4.1,4.1,0,0,1-1.67-1.24,3.026,3.026,0,0,1-.62-1.96,3.243,3.243,0,0,1,.65-1.98,4.1,4.1,0,0,1,1.9-1.33,8.152,8.152,0,0,1,2.89-.46,7.486,7.486,0,0,1,2.3.31,4.917,4.917,0,0,1,1.62.81,3.445,3.445,0,0,1,.94,1.08,2.309,2.309,0,0,1,.3,1.1,1.283,1.283,0,0,1-.38.9,1.254,1.254,0,0,1-.95.4,1.166,1.166,0,0,1-.79-0.24,3.386,3.386,0,0,1-.58-0.77,3.332,3.332,0,0,0-.92-1.16,2.813,2.813,0,0,0-1.74-.42,3.27,3.27,0,0,0-1.79.45,1.283,1.283,0,0,0-.66,1.07,1.03,1.03,0,0,0,.22.66,1.873,1.873,0,0,0,.63.48,4.688,4.688,0,0,0,.82.33c0.28,0.08.75,0.19,1.39,0.34,0.81,0.18,1.54.37,2.2,0.58a7.59,7.59,0,0,1,1.69.78,3.293,3.293,0,0,1,1.09,1.17,3.419,3.419,0,0,1,.4,1.72A3.771,3.771,0,0,1,1360.59,3702.37Z" transform="translate(-1344 -3686)"/>
</svg>
