<svg xmlns="http://www.w3.org/2000/svg" width="29.24" height="18.76" viewBox="0 0 29.24 18.76">
  <defs>
    <style>
      .cls-1 {
        fill: #b1b1b1;
        fill-rule: evenodd;
      }
    </style>
  </defs>
  <path id="Forma_1" data-name="Forma 1" class="cls-1" d="M1326.79,3696.94a5.756,5.756,0,0,0,1.57.37c0.3,0.02.58,0.03,0.86,0.03a8.46,8.46,0,0,0,.91-0.05,4.9,4.9,0,0,1-1.35.86,5.371,5.371,0,0,1-2.13.36,9.63,9.63,0,0,1-2.23,4.03,13.625,13.625,0,0,1-3.87,2.94,16.943,16.943,0,0,1-4.92,1.62,17.238,17.238,0,0,1-3.03.27,16.066,16.066,0,0,1-2.3-.16,15.44,15.44,0,0,1-5.12-1.62,12.985,12.985,0,0,1-4.31-3.62,7.2,7.2,0,0,0,2.43,1.43,8.512,8.512,0,0,0,2.88.5,8.406,8.406,0,0,0,2.95-.54,7.156,7.156,0,0,0,2.59-1.67,3.128,3.128,0,0,1-.44.04,1.874,1.874,0,0,1-.76-0.15,1.386,1.386,0,0,1-.76-0.59,0.852,0.852,0,0,1,0-.82,1.869,1.869,0,0,1,1.07-.8c-0.2.02-.39,0.04-0.57,0.04a4.711,4.711,0,0,1-.78-0.07,3.1,3.1,0,0,1-1.05-.38,3.3,3.3,0,0,1-.75-0.58,3.141,3.141,0,0,1-.49-0.66,2.63,2.63,0,0,1,.82-0.49,4.093,4.093,0,0,1,1.21-.22,4.8,4.8,0,0,1-2.39-1.07,3.144,3.144,0,0,1-.9-1.65c0.33-.05.66-0.1,0.99-0.17a1.851,1.851,0,0,1,.8-0.03,4.637,4.637,0,0,1-1.99-1.66,3.154,3.154,0,0,1-.5-1.57,1.5,1.5,0,0,1,.02-0.2c1.72,0.59,3.17,1.14,4.34,1.64s2.22,0.99,3.13,1.46a4.2,4.2,0,0,1,1.06.66l1.16,0.99c0.24-.65.52-1.29,0.83-1.93s0.66-1.25,1.02-1.84a10.752,10.752,0,0,1,1.21-1.61,6.391,6.391,0,0,1,1.54-1.2,1.367,1.367,0,0,1-.44.82,4.838,4.838,0,0,1,1.07-.68,4.533,4.533,0,0,1,1.21-.34,0.947,0.947,0,0,1-.6.68,6.84,6.84,0,0,1-.93.41,5.073,5.073,0,0,0,.57-0.18c0.29-.11.6-0.2,0.92-0.29a5.32,5.32,0,0,1,.88-0.16,0.4,0.4,0,0,1,.46.14,0.276,0.276,0,0,1-.13.38,2.324,2.324,0,0,1-.57.26,5.267,5.267,0,0,1-.68.19c-0.22.05-.37,0.08-0.44,0.1l-0.68.24c0.13-.01.27-0.02,0.4-0.02a5.47,5.47,0,0,1,1.65.26,5.818,5.818,0,0,1,1.81.95,7.6,7.6,0,0,1,1.44,1.5,6.08,6.08,0,0,1,.91,1.84l0.07,0.3c0.03,0.09.05,0.2,0.08,0.32a3.44,3.44,0,0,0,.87.14,4.951,4.951,0,0,0,1.02-.05,8.805,8.805,0,0,0,.91-0.21c0.27-.09.49-0.17,0.65-0.24a2.517,2.517,0,0,1-1.12,1.2A4.716,4.716,0,0,1,1326.79,3696.94Z" transform="translate(-1300.88 -3688.62)"/>
</svg>
