<svg xmlns="http://www.w3.org/2000/svg" width="12.688" height="21.09" viewBox="0 0 12.688 21.09">
  <defs>
    <style>
      .cls-1 {
        fill: #fff;
        fill-rule: evenodd;
      }
    </style>
  </defs>
  <path id="Forma_1" data-name="Forma 1" class="cls-1" d="M236.336,3199a6.147,6.147,0,0,0-4.485,1.83,6,6,0,0,0-1.851,4.43,15.743,15.743,0,0,0,1.584,5.23q1.584,3.675,3.168,6.67c1.056,2.01,1.584,2.98,1.584,2.93,0.165-.3.391-0.72,0.679-1.24s0.8-1.5,1.522-2.94,1.365-2.77,1.913-3.98,1.056-2.45,1.523-3.75a9.547,9.547,0,0,0,.7-2.92,6,6,0,0,0-1.851-4.43,6.147,6.147,0,0,0-4.485-1.83h0Zm-0.021,8.15a1.956,1.956,0,0,1-1.954-1.95,1.81,1.81,0,0,1,.576-1.36,1.977,1.977,0,0,1,2.757,0,1.81,1.81,0,0,1,.576,1.36A1.956,1.956,0,0,1,236.315,3207.15Z" transform="translate(-230 -3199)"/>
</svg>
