<svg xmlns="http://www.w3.org/2000/svg" width="22" height="22" viewBox="0 0 22 22">
  <defs>
    <style>
      .cls-1 {
        fill: #fff;
        fill-rule: evenodd;
      }
    </style>
  </defs>
  <path id="Forma_1" data-name="Forma 1" class="cls-1" d="M230.233,3288a0.493,0.493,0,0,0-.356.15,3.1,3.1,0,0,0-.819.38v8.36h-3.016a0.983,0.983,0,0,0-.737.31,1.017,1.017,0,0,0-.305.76v8.36a1.087,1.087,0,0,0,.318.78,0.77,0.77,0,0,0,.724.26,0.9,0.9,0,0,1,.863.3,2.812,2.812,0,0,1,.623.93,2.7,2.7,0,0,0,.5.82,0.325,0.325,0,0,0,.533.06v-2.11h1.169v2.11a0.523,0.523,0,0,0,.152.36,0.478,0.478,0,0,0,.356.17h11.533a0.476,0.476,0,0,0,.356-0.17,0.523,0.523,0,0,0,.152-0.36v-2.11h1.22v2.11a1.154,1.154,0,0,0,.762-0.41,2.243,2.243,0,0,0,.432-0.75,1.637,1.637,0,0,1,.444-0.69,1.091,1.091,0,0,1,.826-0.26,0.856,0.856,0,0,0,.724-0.27,1.051,1.051,0,0,0,.317-0.77v-8.36a1.016,1.016,0,0,0-.3-0.76,0.985,0.985,0,0,0-.737-0.31h-3.017v-8.36a0.518,0.518,0,0,0-.152-0.38,0.493,0.493,0,0,0-.356-0.15h-12.2Zm0.686,1.92H241.08v9.16H230.919v-9.16Zm13.489,9.33a0.917,0.917,0,0,1,.915.92,0.9,0.9,0,0,1-.267.65,0.914,0.914,0,0,1-1.562-.65A0.915,0.915,0,0,1,244.408,3299.25Zm-13.489,5.76H241.08v2.89H230.919v-2.89Z" transform="translate(-225 -3288)"/>
</svg>
