<svg xmlns="http://www.w3.org/2000/svg" width="18" height="18.35" viewBox="0 0 18 18.35">
  <defs>
    <style>
      .cls-1 {
        fill: #fff;
        fill-rule: evenodd;
      }
    </style>
  </defs>
  <path id="Forma_1" data-name="Forma 1" class="cls-1" d="M240.421,3160.34a1.223,1.223,0,0,0,1.234-1.22v-1.29a1.233,1.233,0,1,0-2.465,0v1.29A1.221,1.221,0,0,0,240.421,3160.34Zm4.521-1.61h-2.623v0.62a1.876,1.876,0,1,1-3.752,0v-0.62h-5v0.62a1.876,1.876,0,1,1-3.752,0v-0.62l-2.846-.03v16.23h18ZM243,3172.97H228.986v-9.86H243v9.86Zm-11.332-12.63a1.221,1.221,0,0,0,1.232-1.22v-1.29a1.232,1.232,0,1,0-2.463,0v1.29A1.221,1.221,0,0,0,231.665,3160.34Zm1.9,4.11h1.97v1.74h-1.97v-1.74Zm3.187,0h1.973v1.74h-1.973v-1.74Zm2.956,0h1.97v1.74h-1.97v-1.74Zm-6.143,2.89h1.97v1.74h-1.97v-1.74Zm3.187,0h1.973v1.74h-1.973v-1.74Zm2.956,0h1.97v1.74h-1.97v-1.74Zm-6.143,2.94h1.97v1.74h-1.97v-1.74Zm-3.132-2.94H232.4v1.74h-1.969v-1.74Zm0,2.94H232.4v1.74h-1.969v-1.74Zm6.319,0h1.973v1.74h-1.973v-1.74Zm2.956,0h1.97v1.74h-1.97v-1.74Z" transform="translate(-226.969 -3156.59)"/>
</svg>
