<svg xmlns="http://www.w3.org/2000/svg" width="12.907" height="21.09" viewBox="0 0 12.907 21.09">
  <defs>
    <style>
      .cls-1 {
        fill: #fff;
        fill-rule: evenodd;
      }
    </style>
  </defs>
  <path id="Forma_1" data-name="Forma 1" class="cls-1" d="M240.464,3242.95H230.57a1.5,1.5,0,0,0-1.509,1.51v18.05a1.511,1.511,0,0,0,1.509,1.51h9.894a1.511,1.511,0,0,0,1.508-1.51v-18.05A1.505,1.505,0,0,0,240.464,3242.95Zm-7.017,1.25h4.308a0.427,0.427,0,0,1,0,.72h-4.308A0.427,0.427,0,0,1,233.447,3244.2Zm2.154,18.33a0.965,0.965,0,1,1,.962-0.97A0.965,0.965,0,0,1,235.6,3262.53Zm4.407-3.64h-8.982V3246h8.982v12.89Z" transform="translate(-229.062 -3242.94)"/>
</svg>
